<svg xmlns="http://www.w3.org/2000/svg" version="1.1" xmlns:xlink="http://www.w3.org/1999/xlink" width="256" height="256"><svg width="256" height="256" viewBox="0 0 256 256" fill="none" xmlns="http://www.w3.org/2000/svg">
<rect width="256" height="256" rx="24" fill="#1D232A"></rect>
<path d="M55.8443 200.083C55.8443 204.457 59.5741 209.457 68.8987 206.332C76.3584 225.08 44.6548 229.454 44.6548 210.707C44.6548 200.708 52.7361 194.459 64.5473 189.459L172.713 106.97C136.036 118.219 73.2502 111.97 73.2502 132.592C73.2502 141.966 86.9263 144.465 95.6292 144.465V145.09C68.8987 145.715 60.8174 125.718 60.8174 111.345C60.8174 91.9725 72.6286 73.8499 98.1158 73.8499C127.954 73.8499 159.658 103.221 177.064 103.221C182.659 103.221 190.118 101.346 190.118 93.8472C190.118 88.223 183.28 83.8485 177.064 86.3482C172.091 78.8492 178.307 70.1004 187.01 70.1004C193.227 70.1004 200.065 73.8499 200.065 82.5987C200.065 93.8472 191.362 100.721 178.929 105.096L70.142 186.96C107.44 172.587 173.956 174.461 173.956 157.589C173.956 150.715 157.793 149.465 150.334 150.09V149.465C177.064 146.965 186.389 161.338 186.389 177.586C186.389 202.583 165.253 218.831 144.117 218.831C116.143 218.831 87.5479 189.459 70.142 189.459C64.5473 189.459 55.8443 191.959 55.8443 200.083ZM150.334 45.7286C150.334 55.1024 142.252 61.9765 133.549 61.9765C126.711 61.9765 121.738 56.9771 121.738 49.4781C121.738 40.7293 129.819 33.2303 138.522 33.2303C145.36 33.2303 150.334 38.8545 150.334 45.7286Z" fill="white" stroke="white" stroke-width="6.2164"></path>
</svg><style>@media (prefers-color-scheme: light) { :root { filter: none; } }
@media (prefers-color-scheme: dark) { :root { filter: none; } }
</style></svg>