<svg version="1.1" x="0px" y="0px" viewBox="0 0 324 75" id="pixelczar-logo">
  <g>
    <path d="M29.869,33.517h-1.781l-2.701,17.154h7.034l-0.029,0.178H7.313l0.03-0.178h6.203l4.838-30.688 c0.831-5.342,8.132-8.963,15.7-10.061C27.495,9.745,20.46,3.156,14.792,3.156c-2.137,0-3.65,1.424-3.65,4.036 c0,1.543,1.128,2.73,2.196,3.265c-0.771,3.739-3.68,5.46-6.47,5.46c-2.909,0-5.105-2.018-5.105-5.223 c0-6.945,8.666-8.488,14.127-7.657c2.493,0.356,5.372,1.751,8.073,3.146c3.324,1.692,7.063,3.562,10.387,3.562 c1.721,0,2.434-1.128,2.434-2.018c0-1.068-0.89-2.137-2.493-1.543c-1.188-2.196,0.534-3.68,2.374-3.68 c1.425,0,2.849,0.891,2.849,2.849c0,1.632-1.662,3.71-3.829,4.363c1.039-0.089,2.078-0.148,3.116-0.148 c6.975,0,13.86,2.612,13.86,9.557C52.662,30.608,39.722,33.517,29.869,33.517z M28.118,33.339h1.573 c8.013,0,10.566-8.072,10.566-16.857c0-3.472-1.336-6.648-4.422-6.648c-0.979,0-4.036,0.386-5.312,8.37L28.118,33.339z"/>
    <path d="M66.009,44.349c-0.119,0.772-0.771,4.689,1.188,4.689c1.454,0,3.472-2.76,3.888-5.55h0.148 c-0.771,5.224-5.461,7.954-9.557,7.954c-3.799,0-7.123-1.425-5.817-10.031l2.078-13.177c0.297-1.959,1.187-5.758-1.395-5.758 c-0.86,0-2.137,0.891-3.205,1.662l-0.089-0.119c3.027-2.315,7.301-4.511,11.396-4.511c3.324,0,5.016,1.959,4.274,6.529 L66.009,44.349z M72.36,9.478c0,3.917-3.562,7.301-7.36,7.301c-3.086,0-5.283-2.493-5.283-5.639c0-3.917,3.621-7.182,7.36-7.182 C70.164,3.958,72.36,6.332,72.36,9.478z"/>
    <path d="M89.302,40.284c-0.089,4.007-1.424,10.98-8.162,10.98c-3.68,0-7.301-1.364-7.301-5.757c0-2.85,2.137-5.283,5.164-5.283 c2.078,0,4.155,1.306,3.799,3.977c-1.424,0.476-2.612,1.781-2.612,3.74c0,1.662,1.039,2.7,2.642,2.7 c3.383,0,6.292-4.154,6.321-11.011l-2.552-10.98c-0.771-3.265-1.573-6.055-3.829-6.055c-0.801,0-1.958,0.801-2.849,1.543 l-0.089-0.119c2.612-2.196,7.182-4.511,11.278-4.511c3.324,0,5.164,2.018,6.351,6.529l1.365,5.283 c2.374-8.874,9.022-23.327,17.213-23.327c2.73,0,6.767,1.128,6.767,5.045c0,3.265-2.196,5.164-4.926,5.164 c-1.84,0-3.918-1.425-3.621-3.858c1.484-0.416,2.79-1.899,2.79-3.324c0-1.306-0.624-2.375-2.286-2.375 c-6.321,0-13.444,13.326-15.848,23.03l3.116,11.931c0.475,1.78,1.188,5.312,3.265,5.312c1.543,0,3.057-2.642,3.057-5.432h0.148 c-0.06,5.342-4.274,7.954-9.438,7.954c-3.502,0-7.479-1.306-9.497-10.031L89.302,40.284z"/>
    <path d="M123.456,32.211v0.712c0,5.698,2.671,11.04,9.2,11.04c2.849,0,6.945-1.038,9.556-4.303l0.119,0.089 c-3.799,6.352-9.675,11.515-17.391,11.515c-7.42,0-12.703-4.748-12.703-12.702c0-10.15,8.666-19.291,19.944-19.291 c4.63,0,11.396,1.127,11.396,6.648C143.577,30.312,137.701,34.497,123.456,32.211z M123.485,32.003 c7.984,0.831,11.308-4.689,11.308-8.399c0-2.137-0.95-4.125-3.146-4.125C126.839,19.479,123.752,25.89,123.485,32.003z"/>
    <path d="M156.956,50.849c-0.95,5.936-2.642,16.946,2.552,16.946c2.374,0,3.977-2.404,3.977-4.719c0-1.484-0.653-2.938-2.226-3.502 c0.771-3.739,3.68-5.461,6.559-5.461c2.701,0,5.045,1.811,5.045,5.075c0,6.351-7.36,8.814-12.821,8.814 c-7.716,0-15.522-5.995-13.682-17.569l5.876-37.811c0.296-1.959,1.187-5.758-1.395-5.758c-0.861,0-2.137,0.891-3.206,1.662 l-0.089-0.119c3.027-2.315,7.301-4.511,11.396-4.511c3.324,0,5.194,1.959,4.452,6.529L156.956,50.849z"/>
    <path d="M204.315,8.884c4.867,0,7.42,1.87,10.595,1.87c1.514,0,2.227-0.95,2.998-1.751l-1.691,16.561h-0.148 c0.386-6.885-2.345-16.471-11.396-16.471c-12.109,0-15.018,20.003-15.018,29.56c0,6.5,1.751,12.406,8.398,12.406 c9.053,0,14.81-9.586,16.561-16.472h0.148l-3.531,16.561c-0.534-0.802-0.95-1.751-2.434-1.751c-3.205,0-6.321,1.869-11.219,1.869 c-11.396,0-20.211-7.241-20.211-17.955C177.367,19.301,190.782,8.884,204.315,8.884z"/>
    <path d="M219.593,47.05c0,0.92,0.771,2.048,2.819,1.425c1.632,4.096-5.343,5.104-5.343,1.009c0-2.166,1.722-3.65,4.363-4.748 l24.573-18.342c-8.102,2.463-22.556,1.217-22.556,5.876c0,2.018,2.998,2.612,4.957,2.552v0.148 c-5.937,0.178-7.657-4.303-7.657-7.39c0-4.214,2.552-8.31,8.191-8.31c6.647,0,13.622,6.5,17.361,6.5 c1.247,0,2.85-0.475,2.85-2.078c0-1.306-1.514-2.226-2.938-1.632c-1.128-1.603,0.297-3.562,2.256-3.562 c1.365,0,2.908,0.772,2.908,2.73c0,2.493-1.899,3.977-4.719,4.957l-24.544,18.252c8.221-3.116,23.653-2.938,23.653-6.648 c0-1.573-3.531-1.84-5.253-1.632V36.01c5.906-0.593,7.895,2.612,7.895,6.173c0,5.579-4.63,9.081-9.319,9.081    c-6.173,0-12.494-6.528-16.293-6.528C221.61,44.736,219.593,45.27,219.593,47.05z M240.575,13.039 c0,2.018-1.781,3.621-3.681,3.621c-1.483,0-2.641-1.157-2.641-2.76c0-1.958,1.84-3.591,3.65-3.591    C239.477,10.309,240.575,11.525,240.575,13.039z"/>
    <path d="M271.76,43.994c-0.861,3.62-6.292,7.271-11.812,7.271c-4.808,0-7.716-2.106-7.716-6.202    c0-10.892,13.859-9.201,21.517-13.979l0.563-3.562c0.564-3.502,1.276-8.043-2.819-8.043c-2.968,0-5.787,2.642-5.787,5.758 c0,1.306,0.564,2.345,1.514,2.819c-0.712,3.383-3.354,4.986-5.965,4.986c-2.969,0-4.72-2.048-4.72-4.541 c0-4.007,4.541-9.23,15.997-9.23c7.212,0,13.444,2.196,12.346,9.082l-2.492,15.818c-0.119,0.771-0.771,4.689,1.187,4.689 c1.454,0,3.473-2.76,3.888-5.55h0.148c-0.771,5.224-5.46,7.953-9.556,7.953c-3.265,0-6.737-1.187-6.263-7.271H271.76z M273.719,31.261c-4.986,2.79-8.696,4.422-8.963,12.524c-0.06,1.988,0.563,4.036,2.849,4.036c2.256,0,3.888-2.611,4.244-4.808 L273.719,31.261z"/>
    <path d="M293.774,28.234c0.297-1.959,1.188-5.758-1.395-5.758c-0.861,0-2.138,0.891-3.206,1.662l-0.089-0.119    c3.027-2.315,7.301-4.511,11.396-4.511c3.324,0,5.401,1.84,4.452,6.529l-0.802,3.799c1.87-4.511,5.194-10.565,10.893-10.565 c5.045,0,7.241,3.146,7.241,6.529c0,3.799-2.85,7.835-7.657,7.835c-2.552,0-4.689-1.603-4.333-4.986    c2.374-0.534,3.681-2.968,3.681-5.045c0-1.425-0.683-2.938-2.048-2.938c-2.73,0-6.381,5.788-7.806,9.913l-3.146,20.093 c-3.621-0.179-7.183,0.059-10.744,0.593L293.774,28.234z"/>
  </g>
</svg>